<svg width="21" height="20" viewBox="0 0 21 20" fill="none" xmlns="http://www.w3.org/2000/svg">
<path d="M18.7031 10C18.7031 10.2486 18.5994 10.4871 18.4148 10.6629C18.2302 10.8387 17.9798 10.9375 17.7188 10.9375H3.28125C3.02018 10.9375 2.7698 10.8387 2.58519 10.6629C2.40059 10.4871 2.29688 10.2486 2.29688 10C2.29688 9.75136 2.40059 9.5129 2.58519 9.33709C2.7698 9.16127 3.02018 9.0625 3.28125 9.0625H17.7188C17.9798 9.0625 18.2302 9.16127 18.4148 9.33709C18.5994 9.5129 18.7031 9.75136 18.7031 10ZM3.28125 5.9375H17.7188C17.9798 5.9375 18.2302 5.83873 18.4148 5.66291C18.5994 5.4871 18.7031 5.24864 18.7031 5C18.7031 4.75136 18.5994 4.5129 18.4148 4.33709C18.2302 4.16127 17.9798 4.0625 17.7188 4.0625H3.28125C3.02018 4.0625 2.7698 4.16127 2.58519 4.33709C2.40059 4.5129 2.29688 4.75136 2.29688 5C2.29688 5.24864 2.40059 5.4871 2.58519 5.66291C2.7698 5.83873 3.02018 5.9375 3.28125 5.9375ZM17.7188 14.0625H3.28125C3.02018 14.0625 2.7698 14.1613 2.58519 14.3371C2.40059 14.5129 2.29688 14.7514 2.29688 15C2.29688 15.2486 2.40059 15.4871 2.58519 15.6629C2.7698 15.8387 3.02018 15.9375 3.28125 15.9375H17.7188C17.9798 15.9375 18.2302 15.8387 18.4148 15.6629C18.5994 15.4871 18.7031 15.2486 18.7031 15C18.7031 14.7514 18.5994 14.5129 18.4148 14.3371C18.2302 14.1613 17.9798 14.0625 17.7188 14.0625Z" fill="#F1F5F9"/>
</svg>
